<svg width="165" height="48" viewBox="0 0 165 48" fill="none" xmlns="http://www.w3.org/2000/svg">
<path d="M51.3865 48V0.222098H39.6324L26.3884 32.3389H25.7924L12.5815 0.222098H0.794271V48H10.0651V16.0487H10.5949L22.7794 45.2519H29.4345L41.5859 16.0487H42.1157V48H51.3865ZM72.9743 48V0.222098H62.9751V48H72.9743ZM94.5621 48V33.5971L99.2969 28.0015L113.17 48H125.156L106.515 21.1808L123.931 0.222098H112.806L95.1581 21.5119H94.5621V0.222098H84.5629V48H94.5621ZM164.358 39.4576H142.704V27.8359H163.133V19.9226H142.704V8.76451H164.358V0.222098H132.705V48H164.358V39.4576Z" fill="white"/>
</svg>
