<svg width="58" height="17" viewBox="0 0 58 17" fill="none" xmlns="http://www.w3.org/2000/svg">
<path d="M17.957 17V0.0898438H13.7969L9.10938 11.457H8.89844L4.22266 0.0898438H0.0507812V17H3.33203V5.69141H3.51953L7.83203 16.0273H10.1875L14.4883 5.69141H14.6758V17H17.957ZM25.5977 17V0.0898438H22.0586V17H25.5977ZM33.2383 17V11.9023L34.9141 9.92188L39.8242 17H44.0664L37.4688 7.50781L43.6328 0.0898438H39.6953L33.4492 7.625H33.2383V0.0898438H29.6992V17H33.2383ZM57.9414 13.9766H50.2773V9.86328H57.5078V7.0625H50.2773V3.11328H57.9414V0.0898438H46.7383V17H57.9414V13.9766Z" fill="white"/>
</svg>
